<svg width="43" height="43" viewBox="0 0 43 43" fill="none" xmlns="http://www.w3.org/2000/svg">
<path fill-rule="evenodd" clip-rule="evenodd" d="M38.5062 11.0697L23.5129 23.704C23.0868 24.0632 22.5509 24.2597 21.9976 24.2597C21.4443 24.2597 20.9084 24.0632 20.4824 23.704L5.49612 11.0697C5.41571 11.316 5.37482 11.5738 5.375 11.8333V31.1667C5.375 31.8076 5.62522 32.4223 6.07062 32.8755C6.51602 33.3287 7.12011 33.5833 7.75 33.5833H36.25C36.8799 33.5833 37.484 33.3287 37.9294 32.8755C38.3748 32.4223 38.625 31.8076 38.625 31.1667V11.8333C38.6259 11.5739 38.5859 11.3161 38.5062 11.0697ZM7.75 7H36.25C37.5098 7 38.718 7.50922 39.6088 8.41565C40.4996 9.32208 41 10.5515 41 11.8333V31.1667C41 32.4485 40.4996 33.6779 39.6088 34.5843C38.718 35.4908 37.5098 36 36.25 36H7.75C6.49022 36 5.28204 35.4908 4.39124 34.5843C3.50045 33.6779 3 32.4485 3 31.1667V11.8333C3 10.5515 3.50045 9.32208 4.39124 8.41565C5.28204 7.50922 6.49022 7 7.75 7ZM7.25125 9.41667L20.4943 20.5406C20.9184 20.8971 21.451 21.0927 22.0011 21.094C22.5512 21.0953 23.0847 20.9023 23.5105 20.5478L36.8865 9.41667H7.25125Z" fill="url(#paint0_linear_471_8013)"/>
<defs>
<linearGradient id="paint0_linear_471_8013" x1="2.01437" y1="8.69184" x2="118.649" y2="16.1464" gradientUnits="userSpaceOnUse">
<stop stop-color="#B89B58"/>
<stop offset="1" stop-color="#524527"/>
</linearGradient>
</defs>
</svg>
