<svg width="43" height="43" viewBox="0 0 43 43" fill="none" xmlns="http://www.w3.org/2000/svg">
<path d="M33.5938 17.4688C33.5938 14.2613 32.3196 11.1852 30.0516 8.91718C27.7836 6.64916 24.7075 5.375 21.5 5.375C18.2925 5.375 15.2164 6.64916 12.9484 8.91718C10.6804 11.1852 9.40625 14.2613 9.40625 17.4688C9.40625 22.4299 13.3757 28.896 21.5 36.6414C29.6243 28.896 33.5938 22.4299 33.5938 17.4688ZM21.5 40.3125C11.6449 31.3551 6.71875 23.7387 6.71875 17.4688C6.71875 13.5485 8.27606 9.78885 11.0481 7.01683C13.8201 4.24481 17.5798 2.6875 21.5 2.6875C25.4202 2.6875 29.1799 4.24481 31.9519 7.01683C34.7239 9.78885 36.2812 13.5485 36.2812 17.4688C36.2812 23.7387 31.3551 31.3551 21.5 40.3125Z" fill="url(#paint0_linear_471_8035)"/>
<path d="M21.5 21.5C22.5692 21.5 23.5945 21.0753 24.3505 20.3193C25.1065 19.5633 25.5312 18.5379 25.5312 17.4688C25.5312 16.3996 25.1065 15.3742 24.3505 14.6182C23.5945 13.8622 22.5692 13.4375 21.5 13.4375C20.4308 13.4375 19.4055 13.8622 18.6495 14.6182C17.8935 15.3742 17.4688 16.3996 17.4688 17.4688C17.4688 18.5379 17.8935 19.5633 18.6495 20.3193C19.4055 21.0753 20.4308 21.5 21.5 21.5ZM21.5 24.1875C19.7181 24.1875 18.0091 23.4796 16.7491 22.2196C15.4891 20.9596 14.7813 19.2507 14.7812 17.4688C14.7813 15.6868 15.4891 13.9779 16.7491 12.7179C18.0091 11.4579 19.7181 10.75 21.5 10.75C23.2819 10.75 24.9909 11.4579 26.2509 12.7179C27.5109 13.9779 28.2188 15.6868 28.2188 17.4688C28.2188 19.2507 27.5109 20.9596 26.2509 22.2196C24.9909 23.4796 23.2819 24.1875 21.5 24.1875Z" fill="url(#paint1_linear_471_8035)"/>
<defs>
<linearGradient id="paint0_linear_471_8035" x1="5.95197" y1="4.88251" x2="96.9265" y2="8.36901" gradientUnits="userSpaceOnUse">
<stop stop-color="#B89B58"/>
<stop offset="1" stop-color="#524527"/>
</linearGradient>
<linearGradient id="paint1_linear_471_8035" x1="14.4327" y1="11.5339" x2="55.7472" y2="13.5491" gradientUnits="userSpaceOnUse">
<stop stop-color="#B89B58"/>
<stop offset="1" stop-color="#524527"/>
</linearGradient>
</defs>
</svg>
