<svg width="43" height="43" viewBox="0 0 43 43" fill="none" xmlns="http://www.w3.org/2000/svg">
<path d="M27.9728 27.6486L28.7898 26.8369L26.8924 24.9306L26.079 25.7422L27.9728 27.6486ZM31.5293 26.4965L34.9531 28.3581L36.2342 25.9966L32.8121 24.1369L31.5293 26.4965ZM35.6107 32.0561L33.0665 34.5877L34.9603 36.4922L37.5045 33.9624L35.6107 32.0561ZM31.5149 35.4011C28.917 35.6448 22.1983 35.428 14.9205 28.1932L13.0249 30.0978C20.9656 37.9936 28.5246 38.3806 31.7658 38.0778L31.5149 35.4011ZM14.9205 28.1932C7.98498 21.2953 6.83473 15.4957 6.69139 12.9784L4.00748 13.1307C4.18664 16.2983 5.61102 22.7268 13.0249 30.0978L14.9205 28.1932ZM17.3841 17.1207L17.8983 16.6083L16.0063 14.7038L15.4921 15.2144L17.3841 17.1207ZM18.3068 10.0956L16.0493 7.07843L13.8975 8.69093L16.155 11.7063L18.3068 10.0956ZM8.45081 6.42089L5.63789 9.21589L7.53348 11.1222L10.3446 8.32722L8.45081 6.42089ZM16.4381 16.1676C15.4885 15.2144 15.4885 15.2144 15.4885 15.218H15.4849L15.4795 15.2251C15.3944 15.311 15.3181 15.4052 15.252 15.5064C15.1552 15.6498 15.0495 15.8379 14.9599 16.0762C14.7418 16.6913 14.6875 17.3526 14.8023 17.9951C15.0424 19.5448 16.1102 21.5927 18.8443 24.3125L20.7399 22.4061C18.1796 19.862 17.5704 18.314 17.4575 17.583C17.4038 17.2354 17.4593 17.0634 17.4754 17.024C17.4862 17.0001 17.4862 16.9965 17.4754 17.0132C17.4595 17.0379 17.4415 17.0613 17.4217 17.0831L17.4038 17.101L17.3859 17.1171L16.4381 16.1676ZM18.8443 24.3125C21.5801 27.0322 23.6388 28.0929 25.1904 28.3294C25.9841 28.4512 26.6237 28.3545 27.1092 28.1735C27.3812 28.074 27.6353 27.9312 27.8617 27.7507L27.9513 27.6701L27.9639 27.6593L27.9692 27.6539L27.971 27.6503C27.971 27.6503 27.9728 27.6486 27.025 26.6954C26.0754 25.7422 26.0808 25.7404 26.0808 25.7404L26.0844 25.7368L26.088 25.7333L26.0987 25.7243L26.1166 25.7064L26.1847 25.6526C26.2015 25.6419 26.1973 25.6431 26.1722 25.6562C26.1274 25.6723 25.9518 25.7279 25.5989 25.6741C24.8571 25.5595 23.2984 24.9503 20.7399 22.4061L18.8443 24.3125ZM16.0493 7.07664C14.2218 4.63997 10.6313 4.25297 8.45081 6.42089L10.3446 8.32722C11.2978 7.37943 12.9891 7.47797 13.8975 8.69093L16.0493 7.07664ZM6.69319 12.9802C6.65735 12.3603 6.94223 11.7117 7.53348 11.124L5.6361 9.21768C4.67398 10.1744 3.9161 11.5289 4.00748 13.1307L6.69319 12.9802ZM33.0665 34.5877C32.5756 35.0786 32.0453 35.3545 31.5167 35.4029L31.7658 38.0778C33.0826 37.9542 34.1594 37.2913 34.9621 36.494L33.0665 34.5877ZM17.8983 16.6083C19.6631 14.8543 19.7939 12.0826 18.3086 10.0974L16.1568 11.7081C16.8788 12.6738 16.7713 13.9405 16.0045 14.7056L17.8983 16.6083ZM34.9549 28.3598C36.4187 29.1553 36.6463 31.0294 35.6125 32.0578L37.5081 33.9624C39.9089 31.5741 39.1689 27.5912 36.236 25.9984L34.9549 28.3598ZM28.7898 26.8387C29.4778 26.1543 30.5851 25.9859 31.5311 26.4983L32.8139 24.1387C30.8717 23.0816 28.4637 23.3736 26.8942 24.9324L28.7898 26.8387Z" fill="url(#paint0_linear_471_8025)"/>
<defs>
<linearGradient id="paint0_linear_471_8025" x1="3.09367" y1="6.93371" x2="110.499" y2="12.4564" gradientUnits="userSpaceOnUse">
<stop stop-color="#B89B58"/>
<stop offset="1" stop-color="#524527"/>
</linearGradient>
</defs>
</svg>
