<svg width="154" height="51" viewBox="0 0 154 51" fill="none" xmlns="http://www.w3.org/2000/svg">
<g clip-path="url(#clip0_338_1334)">
<path d="M35.848 37.656L32.6396 37.656L32.6396 51L42.2219 51L42.2219 48.095L35.848 48.095L35.848 37.656Z" fill="white"/>
<path d="M60.9085 45.6537L66.794 45.6537L66.794 42.8031L60.9085 42.8031L60.9085 40.5428L67.5426 40.5428L67.5426 37.656L57.7002 37.656L57.7002 51L67.7851 51L67.7851 48.1131L60.9085 48.1131L60.9085 45.6537Z" fill="white"/>
<path d="M87.9261 37.656L82.0156 51L85.3915 51L86.5928 48.1313L92.0684 48.1313L93.2876 51L96.6955 51L90.7672 37.656L87.9297 37.656L87.9261 37.656ZM90.9098 45.3712L87.7621 45.3712L89.3306 41.6476L90.9098 45.3712Z" fill="white"/>
<path d="M111.671 51L114.88 51L114.88 46.2586L120.765 46.2586L120.765 43.3536L114.88 43.3536L114.88 40.5428L121.514 40.5428L121.514 37.656L111.671 37.656L111.671 51Z" fill="white"/>
<path d="M5.88194 0.0181122L4.85027e-07 0.0181122L1.75065e-07 32.6103L5.88194 32.6103L5.88194 0.0181122Z" fill="white"/>
<path d="M30.6005 21.5446L19.3927 6.46183e-08L12.5981 0L30.5933 34.8379L48.6741 3.43094e-07L41.7334 2.77086e-07L30.6005 21.5446Z" fill="white"/>
<path d="M110.859 23.7976C111.878 23.3955 112.894 22.8341 113.903 22.1169C116.983 19.9183 118.544 16.6402 118.544 12.3697C118.544 7.30952 116.405 3.68736 112.199 1.60824C110.146 0.579548 108.057 0.0579568 105.996 0.0579568L95.1021 0.0579567L95.1021 32.6103L100.984 32.6103L100.984 22.4357L111.276 32.6103L119.813 32.6103L110.862 23.794L110.859 23.7976ZM100.98 6.01641L105.993 6.01641C107.197 6.01641 108.395 6.3098 109.54 6.88573C111.629 7.93978 112.598 9.68203 112.598 12.3697C112.598 15.0573 111.625 16.796 109.547 17.85C108.381 18.4295 107.183 18.7229 105.989 18.7229L100.977 18.7229L100.977 6.01641L100.98 6.01641Z" fill="white"/>
<path d="M147.43 0.0217325L139.619 15.2638L131.845 0.0217324L125.257 0.0217323L136.686 22.1386L136.686 32.6139L142.568 32.6139L142.568 22.1386L154 0.0217326L147.43 0.0217325Z" fill="white"/>
<path d="M79.8233 4.82109C76.672 1.63721 72.8862 0.0434649 68.4587 0.0434648C64.0312 0.0434648 60.2454 1.63721 57.0941 4.82109C53.9606 8.01946 52.3921 11.8698 52.3921 16.3685C52.3921 20.8673 53.9606 24.714 57.0941 27.916C60.2418 31.0999 64.0312 32.6936 68.4587 32.6936C72.8862 32.6936 76.672 31.0999 79.8198 27.916C82.9532 24.7176 84.5218 20.8673 84.5218 16.3685C84.5218 11.8698 82.9532 8.02308 79.8198 4.82109M63.7532 26.8909C63.8815 24.6705 63.3361 22.2075 62.5625 20.5123C61.5572 18.3028 58.1029 16.7525 56.9871 15.0972C56.816 16.7525 59.3257 18.3969 60.9833 20.7187C63.7246 24.9567 62.5803 27.3835 62.3522 28.894C62.4663 27.4415 60.4664 26.2244 58.6947 25.1812C55.9533 23.5549 55.2119 21.7004 54.809 20.1899C53.7824 14.3872 55.7466 9.78707 56.431 9.35241C55.4471 11.8771 62.0456 16.8937 62.976 17.9261C66.5801 21.9068 63.746 26.8909 63.746 26.8909M76.0518 26.9851C73.4209 28.539 70.4479 30.3501 70.619 32.5052C70.2803 30.2631 68.751 25.7789 72.8256 19.4836C75.2889 16.0317 78.2156 13.2969 77.9625 10.8375C76.3084 13.2969 72.1055 17.3067 70.9612 19.8277C69.8169 22.3487 68.3518 26.228 68.5443 29.5278C68.5443 29.5278 65.2967 22.3487 69.6886 16.2055C70.897 14.5249 78.7432 9.4973 77.2816 5.74474C78.3012 6.39311 83.3525 10.9462 81.8268 19.5669C81.235 21.809 80.1299 24.5691 76.0553 26.9851" fill="white"/>
</g>
<defs>
<clipPath id="clip0_338_1334">
<rect width="154" height="51" fill="white"/>
</clipPath>
</defs>
</svg>
