<svg width="53" height="54" viewBox="0 0 53 54" fill="none" xmlns="http://www.w3.org/2000/svg">
<path d="M45.2496 7.90171C40.0514 2.6359 33.8064 0 26.5029 0C19.1995 0 12.9545 2.6359 7.75624 7.90171C2.58738 13.1915 0 19.5596 0 27C0 34.4404 2.58738 40.8025 7.75624 46.0983C12.9486 51.3641 19.1995 54 26.5029 54C33.8064 54 40.0514 51.3641 45.2438 46.0983C50.4126 40.8085 53 34.4404 53 27C53 19.5596 50.4126 13.1975 45.2438 7.90171M18.7408 44.4029C18.9525 40.7306 18.0528 36.657 16.7768 33.8533C15.1185 30.199 9.42039 27.635 7.57983 24.8973C7.29757 27.635 11.4374 30.3548 14.1718 34.1948C18.6938 41.2039 16.8062 45.2177 16.4298 47.7158C16.618 45.3135 13.3191 43.3006 10.3965 41.5753C5.87451 38.8855 4.65139 35.8183 3.98691 33.3202C2.29335 23.7231 5.53345 16.1149 6.66249 15.396C5.0395 19.5716 15.9241 27.8687 17.4589 29.576C23.404 36.1598 18.7291 44.4029 18.7291 44.4029M39.0282 44.5587C34.6884 47.1287 29.7842 50.124 30.0665 53.6885C29.5078 49.9802 26.9851 42.5638 33.7064 32.152C37.7698 26.4429 42.5976 21.9199 42.1801 17.8522C39.4516 21.9199 32.5186 28.5516 30.631 32.7211C28.7434 36.8906 26.3265 43.3066 26.6441 48.7641C26.6441 48.7641 21.287 36.8906 28.5317 26.7304C30.5251 23.9507 43.4679 15.6357 41.0569 9.42933C42.7387 10.5017 51.0712 18.0319 48.5544 32.2898C47.5783 35.998 45.7554 40.5629 39.0341 44.5587" fill="#D2B277"/>
</svg>
