<svg width="32" height="32" viewBox="0 0 32 32" fill="none" xmlns="http://www.w3.org/2000/svg">
<path d="M0 25.7255V16.8842C0 16.3608 0.151704 15.8032 0.455111 15.2114C0.758519 14.6196 1.19941 14.1752 1.77778 13.8781V9.81108C1.77778 8.81377 2.1197 7.97502 2.80356 7.29483C3.48741 6.61463 4.33067 6.27454 5.33333 6.27454H13.3333C13.9461 6.27454 14.4693 6.40008 14.9031 6.65118C15.3357 6.90109 15.7013 7.24709 16 7.68915C16.2987 7.24709 16.6643 6.90109 17.0969 6.65118C17.5307 6.40008 18.0539 6.27454 18.6667 6.27454H26.6667C27.6693 6.27454 28.5126 6.61463 29.1964 7.29483C29.8803 7.97502 30.2222 8.81377 30.2222 9.81108V13.8781C30.8018 14.1752 31.2427 14.6196 31.5449 15.2114C31.8483 15.8032 32 16.3608 32 16.8842V25.7255H30.2222V22.189H1.77778V25.7255H0ZM16.8889 13.3476H28.4444V9.81108C28.4444 9.31007 28.2738 8.8904 27.9324 8.55207C27.5911 8.21374 27.1692 8.04399 26.6667 8.04281H18.6667C18.163 8.04281 17.741 8.21256 17.4009 8.55207C17.0607 8.89158 16.8901 9.31125 16.8889 9.81108V13.3476ZM3.55556 13.3476H15.1111V9.81108C15.1111 9.31007 14.9404 8.8904 14.5991 8.55207C14.2578 8.21374 13.8359 8.04399 13.3333 8.04281H5.33333C4.82963 8.04281 4.4077 8.21256 4.06756 8.55207C3.72741 8.89158 3.55674 9.31125 3.55556 9.81108V13.3476ZM1.77778 20.4207H30.2222V16.8842C30.2222 16.3832 30.0516 15.9635 29.7102 15.6252C29.3689 15.2868 28.947 15.1171 28.4444 15.1159H3.55556C3.05185 15.1159 2.62993 15.2856 2.28978 15.6252C1.94963 15.9647 1.77896 16.3843 1.77778 16.8842V20.4207Z" fill="white"/>
</svg>
