<svg width="32" height="32" viewBox="0 0 32 32" fill="none" xmlns="http://www.w3.org/2000/svg">
<path d="M17.422 13.9688C17.1789 13.9688 16.9757 13.8877 16.8125 13.7257C16.6492 13.5638 16.5671 13.3629 16.5659 13.1233C16.5648 12.8837 16.647 12.6834 16.8125 12.5226C16.978 12.3617 17.1812 12.2812 17.422 12.2812H24.0072C24.2504 12.2812 24.4535 12.3623 24.6168 12.5243C24.78 12.6862 24.8622 12.8871 24.8633 13.1267C24.8645 13.3663 24.7823 13.5666 24.6168 13.7274C24.4513 13.8883 24.2481 13.9688 24.0072 13.9688H17.422ZM17.422 7.60687C17.1789 7.60687 16.9757 7.52644 16.8125 7.36556C16.6481 7.20356 16.5659 7.00275 16.5659 6.76312C16.5659 6.5235 16.6481 6.32325 16.8125 6.16238C16.9768 6.0015 17.18 5.92106 17.422 5.92106H29.1439C29.387 5.92106 29.5902 6.00206 29.7534 6.16406C29.9167 6.32606 29.9988 6.52631 30 6.76481C30.0011 7.00331 29.9189 7.20356 29.7534 7.36556C29.5879 7.52756 29.3847 7.60856 29.1439 7.60856L17.422 7.60687ZM9.84888 30C7.94147 30 6.32285 29.3453 4.99302 28.0358C3.66434 26.724 3 25.1287 3 23.25C3 22.0665 3.29964 20.9634 3.89892 19.9408C4.49819 18.9171 5.34003 18.0733 6.42444 17.4096V6.375C6.42444 5.42325 6.75376 4.62281 7.41239 3.97369C8.07102 3.32456 8.88319 3 9.84888 3C10.8146 3 11.6267 3.32456 12.2854 3.97369C12.944 4.62281 13.2733 5.42325 13.2733 6.375V17.4096C14.3577 18.0733 15.1996 18.9171 15.7988 19.9408C16.3981 20.9634 16.6978 22.0665 16.6978 23.25C16.6978 25.1299 16.0334 26.7251 14.7047 28.0358C13.3749 29.3453 11.7557 30 9.84717 30M4.71051 23.25H14.9838C14.9838 22.413 14.7555 21.6052 14.2989 20.8267C13.8423 20.0483 13.1894 19.3541 12.3402 18.7444L11.5611 18.1875V6.375C11.5611 5.89687 11.3967 5.49638 11.068 5.1735C10.7392 4.85063 10.3329 4.68862 9.84888 4.6875C9.36489 4.68638 8.95795 4.84838 8.62807 5.1735C8.29818 5.49863 8.13438 5.89913 8.13666 6.375V18.1875L7.35931 18.7444C6.50548 19.353 5.85085 20.0471 5.3954 20.8267C4.9388 21.6052 4.71051 22.413 4.71051 23.25Z" fill="white"/>
</svg>
