<svg width="32" height="32" viewBox="0 0 32 32" fill="none" xmlns="http://www.w3.org/2000/svg">
<path d="M16.3131 26.9804C15.6767 26.9804 15.1389 26.7611 14.6996 26.3224C14.2603 25.8837 14.0406 25.3466 14.0406 24.7112C14.0406 24.0757 14.2603 23.5382 14.6996 23.0985C15.1389 22.6588 15.6767 22.4395 16.3131 22.4404C16.9494 22.4414 17.4872 22.6608 17.9265 23.0985C18.3659 23.5362 18.5855 24.0733 18.5855 24.7097C18.5855 25.3461 18.3659 25.8837 17.9265 26.3224C17.4872 26.7611 16.9494 26.9804 16.3131 26.9804ZM16.3131 13.8724C18.0467 13.8724 19.6784 14.1675 21.2081 14.7577C22.7379 15.3479 24.1135 16.1687 25.3349 17.2203C25.5811 17.4189 25.7102 17.6683 25.722 17.9683C25.7348 18.2673 25.6334 18.5251 25.4176 18.7415C25.2068 18.951 24.9502 19.0523 24.6478 19.0454C24.3454 19.0385 24.0706 18.9387 23.8234 18.7459C22.8118 17.899 21.6637 17.234 20.3792 16.7511C19.0948 16.2691 17.7394 16.0281 16.3131 16.0281C14.8868 16.0281 13.5314 16.2691 12.2469 16.7511C10.9624 17.233 9.81487 17.898 8.80424 18.7459C8.55798 18.9387 8.28267 19.037 7.9783 19.041C7.6759 19.0449 7.41979 18.9416 7.20998 18.7311C6.99919 18.5157 6.89822 18.2585 6.90709 17.9595C6.91595 17.6604 7.044 17.4111 7.29124 17.2114C8.51267 16.1589 9.88875 15.3395 11.4195 14.7533C12.9482 14.166 14.5794 13.8724 16.3131 13.8724ZM16.3131 5.01965C19.3154 5.01965 22.1109 5.53754 24.6996 6.57332C27.2882 7.61007 29.5902 9.05111 31.6055 10.8964C31.8518 11.105 31.9828 11.3656 31.9986 11.6784C32.0133 11.9902 31.9129 12.2543 31.6972 12.4707C31.4676 12.6989 31.1968 12.7953 30.8845 12.7599C30.5713 12.7255 30.2822 12.5966 30.0172 12.3734C28.187 10.7336 26.1037 9.45735 23.7672 8.54453C21.4308 7.63171 18.946 7.1753 16.3131 7.1753C13.6801 7.1753 11.1954 7.63171 8.85891 8.54453C6.52243 9.45735 4.43911 10.7336 2.60894 12.3734C2.34298 12.5966 2.05437 12.726 1.7431 12.7614C1.42987 12.7958 1.15899 12.6989 0.930461 12.4707C0.713756 12.2543 0.613284 11.9902 0.629044 11.6784C0.643819 11.3666 0.774335 11.1059 1.02059 10.8964C3.03595 9.05111 5.33794 7.61007 7.92658 6.57332C10.5152 5.53852 13.3107 5.01965 16.3131 5.01965Z" fill="white"/>
</svg>
