<svg width="44" height="44" viewBox="0 0 44 44" fill="none" xmlns="http://www.w3.org/2000/svg">
<path d="M0 35.3724V23.2156C0 22.4959 0.208593 21.7292 0.625778 20.9155C1.04296 20.1018 1.64919 19.4907 2.44444 19.0822V13.4901C2.44444 12.1188 2.91459 10.9655 3.85489 10.0302C4.79519 9.09495 5.95467 8.62732 7.33333 8.62732H18.3333C19.1759 8.62732 19.8953 8.79995 20.4918 9.1452C21.0866 9.48884 21.5893 9.96457 22 10.5724C22.4107 9.96457 22.9134 9.48884 23.5082 9.1452C24.1047 8.79995 24.8241 8.62732 25.6667 8.62732H36.6667C38.0453 8.62732 39.2048 9.09495 40.1451 10.0302C41.0854 10.9655 41.5556 12.1188 41.5556 13.4901V19.0822C42.3524 19.4907 42.9587 20.1018 43.3742 20.9155C43.7914 21.7292 44 22.4959 44 23.2156V35.3724H41.5556V30.5097H2.44444V35.3724H0ZM23.2222 18.3528H39.1111V13.4901C39.1111 12.8012 38.8764 12.2241 38.4071 11.7589C37.9378 11.2937 37.3576 11.0603 36.6667 11.0587H25.6667C24.9741 11.0587 24.3939 11.2921 23.9262 11.7589C23.4585 12.2258 23.2239 12.8028 23.2222 13.4901V18.3528ZM4.88889 18.3528H20.7778V13.4901C20.7778 12.8012 20.5431 12.2241 20.0738 11.7589C19.6044 11.2937 19.0243 11.0603 18.3333 11.0587H7.33333C6.64074 11.0587 6.06059 11.2921 5.59289 11.7589C5.12519 12.2258 4.89052 12.8028 4.88889 13.4901V18.3528ZM2.44444 28.0783H41.5556V23.2156C41.5556 22.5267 41.3209 21.9496 40.8516 21.4844C40.3822 21.0192 39.8021 20.7858 39.1111 20.7842H4.88889C4.1963 20.7842 3.61615 21.0176 3.14844 21.4844C2.68074 21.9512 2.44607 22.5283 2.44444 23.2156V28.0783Z" fill="url(#paint0_linear_436_2431)"/>
<defs>
<linearGradient id="paint0_linear_436_2431" x1="-1.14126" y1="10.1876" x2="133.594" y2="20.9993" gradientUnits="userSpaceOnUse">
<stop stop-color="#B89B58"/>
<stop offset="1" stop-color="#524527"/>
</linearGradient>
</defs>
</svg>
