<svg width="44" height="44" viewBox="0 0 44 44" fill="none" xmlns="http://www.w3.org/2000/svg">
<path d="M0 33.1877V13.4599C0 12.4056 0.390377 11.5033 1.17113 10.7529C1.95188 10.0026 2.88879 9.62658 3.98184 9.625H40.0182C41.1129 9.625 42.0498 10.0002 42.8289 10.7505C43.608 11.5009 43.9984 12.404 44 13.4599V33.1877C44 33.5249 43.8817 33.8067 43.645 34.0331C43.4083 34.261 43.1157 34.375 42.7672 34.375C42.4171 34.375 42.1237 34.261 41.887 34.0331C41.6503 33.8051 41.5328 33.5233 41.5345 33.1877V29.6259H29.9193V33.1877C29.9193 33.5249 29.801 33.8067 29.5643 34.0331C29.3276 34.261 29.0342 34.375 28.6841 34.375C28.334 34.375 28.0414 34.261 27.8063 34.0331C27.5713 33.8051 27.4538 33.5233 27.4538 33.1877V11.9996H3.98184C3.53969 11.9996 3.17644 12.1365 2.89208 12.4104C2.60772 12.6842 2.46554 13.0341 2.46554 13.4599V33.1877C2.46554 33.5249 2.34719 33.8067 2.1105 34.0331C1.87381 34.2594 1.58041 34.3734 1.2303 34.375C0.880197 34.3766 0.58762 34.2626 0.352572 34.0331C0.117524 33.8035 0 33.5217 0 33.1877ZM29.9193 17.7531H41.5345V13.4599C41.5345 13.0341 41.3923 12.6842 41.1079 12.4104C40.8236 12.1365 40.4603 11.9996 40.0182 11.9996H29.9193V17.7531ZM29.9193 27.2513H41.5345V20.1277H29.9193V27.2513Z" fill="url(#paint0_linear_436_2437)"/>
<defs>
<linearGradient id="paint0_linear_436_2437" x1="-1.14126" y1="11.0689" x2="133.45" y2="22.7396" gradientUnits="userSpaceOnUse">
<stop stop-color="#B89B58"/>
<stop offset="1" stop-color="#524527"/>
</linearGradient>
</defs>
</svg>
