<svg width="44" height="44" viewBox="0 0 44 44" fill="none" xmlns="http://www.w3.org/2000/svg">
<path d="M1.375 35.75V33.5232H42.625V35.75H1.375ZM3.18586 30.439V29.9269C3.18586 25.5475 4.76155 21.7597 7.91291 18.5634C11.0674 15.3702 14.9792 13.4625 19.6482 12.8405V11.854C19.6482 11.2573 19.8826 10.7369 20.3514 10.293C20.8202 9.84768 21.3697 9.625 22 9.625C22.6303 9.625 23.1798 9.84768 23.6486 10.293C24.1174 10.7384 24.3518 11.258 24.3518 11.8518V12.8383C29.0318 13.4618 32.9451 15.3702 36.0918 18.5634C39.2385 21.7567 40.8126 25.5445 40.8141 29.9269V30.439H3.18586ZM5.70225 28.2122H38.2977C37.9309 24.581 36.1694 21.4605 33.0133 18.8507C29.8573 16.2409 26.1861 14.9374 22 14.9404C17.8139 14.9434 14.1451 16.2468 10.9937 18.8507C7.84236 21.4546 6.07854 24.5751 5.70225 28.2122Z" fill="url(#paint0_linear_436_2461)"/>
<defs>
<linearGradient id="paint0_linear_436_2461" x1="0.305069" y1="11.1491" x2="126.683" y2="20.8821" gradientUnits="userSpaceOnUse">
<stop stop-color="#B89B58"/>
<stop offset="1" stop-color="#524527"/>
</linearGradient>
</defs>
</svg>
