<svg width="44" height="44" viewBox="0 0 44 44" fill="none" xmlns="http://www.w3.org/2000/svg">
<path d="M23.9553 19.207C23.621 19.207 23.3416 19.0957 23.1172 18.8729C22.8927 18.6502 22.7797 18.374 22.7781 18.0446C22.7766 17.7151 22.8896 17.4397 23.1172 17.2185C23.3447 16.9973 23.6241 16.8867 23.9553 16.8867H33.0099C33.3442 16.8867 33.6236 16.9981 33.8481 17.2208C34.0725 17.4436 34.1855 17.7197 34.1871 18.0492C34.1887 18.3787 34.0756 18.654 33.8481 18.8752C33.6205 19.0964 33.3411 19.207 33.0099 19.207H23.9553ZM23.9553 10.4595C23.621 10.4595 23.3416 10.3489 23.1172 10.1276C22.8911 9.9049 22.7781 9.62878 22.7781 9.2993C22.7781 8.96981 22.8911 8.69447 23.1172 8.47327C23.3432 8.25206 23.6225 8.14146 23.9553 8.14146H40.0728C40.4071 8.14146 40.6865 8.25284 40.911 8.47559C41.1354 8.69834 41.2484 8.97368 41.25 9.30162C41.2516 9.62955 41.1385 9.9049 40.911 10.1276C40.6834 10.3504 40.404 10.4618 40.0728 10.4618L23.9553 10.4595ZM13.5422 41.25C10.9195 41.25 8.69391 40.3497 6.86541 38.5492C5.03847 36.7455 4.125 34.552 4.125 31.9688C4.125 30.3414 4.537 28.8247 5.36101 27.4186C6.18501 26.011 7.34255 24.8508 8.8336 23.9381V8.76562C8.8336 7.45697 9.28641 6.35637 10.192 5.46382C11.0977 4.57127 12.2144 4.125 13.5422 4.125C14.87 4.125 15.9868 4.57127 16.8924 5.46382C17.798 6.35637 18.2508 7.45697 18.2508 8.76562V23.9381C19.7419 24.8508 20.8994 26.011 21.7234 27.4186C22.5474 28.8247 22.9594 30.3414 22.9594 31.9688C22.9594 34.5536 22.0459 36.747 20.219 38.5492C18.3905 40.3497 16.1641 41.25 13.5399 41.25M6.47695 31.9688H20.6028C20.6028 30.8179 20.2889 29.7072 19.661 28.6368C19.0332 27.5663 18.1355 26.6119 16.9677 25.7735L15.8965 25.0078V8.76562C15.8965 8.1082 15.6705 7.55752 15.2185 7.11356C14.7664 6.66961 14.2077 6.44686 13.5422 6.44531C12.8767 6.44377 12.3172 6.66652 11.8636 7.11356C11.41 7.56061 11.1848 8.1113 11.1879 8.76562V25.0078L10.1191 25.7735C8.94504 26.6104 8.04491 27.5648 7.41867 28.6368C6.79085 29.7072 6.47695 30.8179 6.47695 31.9688Z" fill="url(#paint0_linear_436_2443)"/>
<defs>
<linearGradient id="paint0_linear_436_2443" x1="3.16206" y1="6.29084" x2="117.305" y2="11.8583" gradientUnits="userSpaceOnUse">
<stop stop-color="#B89B58"/>
<stop offset="1" stop-color="#524527"/>
</linearGradient>
</defs>
</svg>
