<svg width="44" height="44" viewBox="0 0 44 44" fill="none" xmlns="http://www.w3.org/2000/svg">
<g clip-path="url(#clip0_436_2455)">
<path d="M22.431 37.0979C21.5561 37.0979 20.8166 36.7963 20.2125 36.1931C19.6084 35.5899 19.3064 34.8514 19.3064 33.9777C19.3064 33.104 19.6084 32.3648 20.2125 31.7603C20.8166 31.1557 21.5561 30.8541 22.431 30.8554C23.306 30.8568 24.0455 31.1584 24.6495 31.7603C25.2536 32.3621 25.5556 33.1006 25.5556 33.9757C25.5556 34.8507 25.2536 35.5899 24.6495 36.1931C24.0455 36.7963 23.306 37.0979 22.431 37.0979ZM22.431 19.0744C24.8148 19.0744 27.0583 19.4802 29.1617 20.2917C31.2651 21.1032 33.1566 22.2318 34.836 23.6777C35.1746 23.9509 35.3521 24.2937 35.3683 24.7063C35.3859 25.1174 35.2464 25.4718 34.9498 25.7693C34.66 26.0574 34.3071 26.1967 33.8913 26.1873C33.4755 26.1778 33.0976 26.0405 32.7577 25.7754C31.3667 24.6109 29.7882 23.6966 28.022 23.0325C26.2559 22.3698 24.3922 22.0384 22.431 22.0384C20.4698 22.0384 18.6062 22.3698 16.84 23.0325C15.0739 23.6953 13.496 24.6096 12.1064 25.7754C11.7678 26.0405 11.3892 26.1758 10.9707 26.1812C10.5549 26.1866 10.2028 26.0446 9.91427 25.7551C9.62443 25.4589 9.4856 25.1053 9.49779 24.6941C9.50998 24.2829 9.68606 23.9401 10.026 23.6655C11.7055 22.2183 13.5976 21.0917 15.7023 20.2856C17.8044 19.4781 20.0473 19.0744 22.431 19.0744ZM22.431 6.90186C26.5593 6.90186 30.4031 7.61395 33.9624 9.03814C37.5218 10.4637 40.6871 12.4451 43.4582 14.9824C43.7968 15.2691 43.9769 15.6276 43.9986 16.0577C44.0189 16.4864 43.8808 16.8495 43.5841 17.1471C43.2686 17.4609 42.8961 17.5934 42.4668 17.5447C42.0361 17.4974 41.6385 17.3202 41.2742 17.0132C38.7577 14.7586 35.8931 13.0037 32.6805 11.7486C29.4678 10.4934 26.0513 9.86588 22.431 9.86588C18.8107 9.86588 15.3942 10.4934 12.1816 11.7486C8.9689 13.0037 6.10433 14.7586 3.58784 17.0132C3.22215 17.3202 2.82531 17.4981 2.39732 17.5468C1.96662 17.5941 1.59416 17.4609 1.27993 17.1471C0.981964 16.8495 0.843815 16.4864 0.865485 16.0577C0.885801 15.6289 1.06526 15.2705 1.40386 14.9824C4.17498 12.4451 7.34022 10.4637 10.8996 9.03814C14.459 7.6153 18.3028 6.90186 22.431 6.90186Z" fill="url(#paint0_linear_436_2455)"/>
</g>
<defs>
<linearGradient id="paint0_linear_436_2455" x1="-0.255601" y1="8.66347" x2="132.046" y2="17.8822" gradientUnits="userSpaceOnUse">
<stop stop-color="#B89B58"/>
<stop offset="1" stop-color="#524527"/>
</linearGradient>
<clipPath id="clip0_436_2455">
<rect width="44" height="44" fill="white"/>
</clipPath>
</defs>
</svg>
