<svg width="44" height="44" viewBox="0 0 44 44" fill="none" xmlns="http://www.w3.org/2000/svg">
<path d="M41.25 16.8437H35.4062V16.4999C35.4062 16.2264 35.2976 15.9641 35.1042 15.7707C34.9108 15.5773 34.6485 15.4687 34.375 15.4687H23.375C23.1015 15.4687 22.8392 15.5773 22.6458 15.7707C22.4524 15.9641 22.3438 16.2264 22.3438 16.4999V16.8437H10.6562V8.93744C10.6562 8.29927 10.9098 7.68723 11.361 7.23597C11.8123 6.78471 12.4243 6.53119 13.0625 6.53119C13.6249 6.53016 14.171 6.71976 14.6118 7.06906C15.0525 7.41836 15.3619 7.90673 15.4894 8.45448C15.5143 8.58902 15.5658 8.71724 15.6408 8.83169C15.7158 8.94613 15.8129 9.0445 15.9263 9.12106C16.0397 9.19763 16.1672 9.25086 16.3014 9.27765C16.4356 9.30445 16.5738 9.30427 16.7079 9.27712C16.842 9.24998 16.9694 9.19642 17.0826 9.11956C17.1958 9.0427 17.2926 8.94407 17.3673 8.82943C17.442 8.7148 17.4931 8.58644 17.5178 8.45183C17.5424 8.31723 17.5399 8.17907 17.5106 8.04541C17.293 7.02892 16.732 6.11838 15.9219 5.46698C15.1117 4.81557 14.102 4.46304 13.0625 4.46869C11.8773 4.46869 10.7407 4.93951 9.90262 5.77756C9.06456 6.61561 8.59375 7.75226 8.59375 8.93744V16.8437H2.75C2.4765 16.8437 2.21419 16.9523 2.0208 17.1457C1.8274 17.3391 1.71875 17.6014 1.71875 17.8749V24.7499C1.72148 27.2106 2.7002 29.5698 4.44018 31.3098C6.18016 33.0497 8.5393 34.0285 11 34.0312H11.3438V37.1249C11.3438 37.3984 11.4524 37.6608 11.6458 37.8541C11.8392 38.0475 12.1015 38.1562 12.375 38.1562C12.6485 38.1562 12.9108 38.0475 13.1042 37.8541C13.2976 37.6608 13.4062 37.3984 13.4062 37.1249V34.0312H30.5938V37.1249C30.5938 37.3984 30.7024 37.6608 30.8958 37.8541C31.0892 38.0475 31.3515 38.1562 31.625 38.1562C31.8985 38.1562 32.1608 38.0475 32.3542 37.8541C32.5476 37.6608 32.6562 37.3984 32.6562 37.1249V34.0312H33C35.4607 34.0285 37.8198 33.0497 39.5598 31.3098C41.2998 29.5698 42.2785 27.2106 42.2812 24.7499V17.8749C42.2812 17.6014 42.1726 17.3391 41.9792 17.1457C41.7858 16.9523 41.5235 16.8437 41.25 16.8437ZM24.4062 17.5312H33.3438V23.7187H24.4062V17.5312ZM40.2188 24.7499C40.2188 26.6645 39.4582 28.5006 38.1044 29.8544C36.7506 31.2082 34.9145 31.9687 33 31.9687H11C9.08547 31.9687 7.24935 31.2082 5.89557 29.8544C4.54179 28.5006 3.78125 26.6645 3.78125 24.7499V18.9062H22.3438V24.7499C22.3438 25.0234 22.4524 25.2858 22.6458 25.4791C22.8392 25.6725 23.1015 25.7812 23.375 25.7812H34.375C34.6485 25.7812 34.9108 25.6725 35.1042 25.4791C35.2976 25.2858 35.4062 25.0234 35.4062 24.7499V18.9062H40.2188V24.7499Z" fill="url(#paint0_linear_436_2449)"/>
<defs>
<linearGradient id="paint0_linear_436_2449" x1="0.666651" y1="6.43393" x2="125.246" y2="13.7505" gradientUnits="userSpaceOnUse">
<stop stop-color="#B89B58"/>
<stop offset="1" stop-color="#524527"/>
</linearGradient>
</defs>
</svg>
