<svg width="16" height="16" viewBox="0 0 16 16" fill="none" xmlns="http://www.w3.org/2000/svg">
<path d="M14.3673 9.6499C14.2347 9.6499 14.1075 9.70258 14.0138 9.79635C13.92 9.89012 13.8673 10.0173 13.8673 10.1499V11.8574C13.8673 12.2599 13.7074 12.6459 13.4229 12.9304C13.1383 13.215 12.7523 13.3749 12.3498 13.3749H3.64982C3.24736 13.3749 2.86138 13.215 2.57679 12.9304C2.2922 12.6459 2.13232 12.2599 2.13232 11.8574V10.1499C2.13232 10.0173 2.07965 9.89012 1.98588 9.79635C1.89211 9.70258 1.76493 9.6499 1.63232 9.6499C1.49972 9.6499 1.37254 9.70258 1.27877 9.79635C1.185 9.89012 1.13232 10.0173 1.13232 10.1499V11.8574C1.13299 12.5249 1.39843 13.1648 1.87041 13.6368C2.34239 14.1088 2.98234 14.3742 3.64982 14.3749H12.3498C13.0173 14.3742 13.6573 14.1088 14.1292 13.6368C14.6012 13.1648 14.8667 12.5249 14.8673 11.8574V10.1499C14.8673 10.0173 14.8146 9.89012 14.7209 9.79635C14.6271 9.70258 14.4999 9.6499 14.3673 9.6499Z" fill="white"/>
<path d="M7.64502 11.11C7.69151 11.1569 7.74681 11.1941 7.80774 11.2194C7.86867 11.2448 7.93402 11.2579 8.00002 11.2579C8.06603 11.2579 8.13138 11.2448 8.19231 11.2194C8.25324 11.1941 8.30854 11.1569 8.35502 11.11L11.2 8.265C11.2794 8.16948 11.3204 8.04784 11.315 7.92376C11.3096 7.79968 11.2583 7.68205 11.1709 7.59376C11.0836 7.50547 10.9665 7.45286 10.8425 7.44615C10.7185 7.43945 10.5964 7.47914 10.5 7.5575L8.50002 9.5575V2.125C8.50002 1.99239 8.44735 1.86521 8.35358 1.77145C8.25981 1.67768 8.13263 1.625 8.00002 1.625C7.86742 1.625 7.74024 1.67768 7.64647 1.77145C7.5527 1.86521 7.50002 1.99239 7.50002 2.125V9.55L5.50002 7.55C5.4062 7.45618 5.27896 7.40347 5.14627 7.40347C5.01359 7.40347 4.88634 7.45618 4.79252 7.55C4.6987 7.64382 4.646 7.77107 4.646 7.90375C4.646 8.03643 4.6987 8.16368 4.79252 8.2575L7.64502 11.11Z" fill="white"/>
</svg>
