<svg width="44" height="44" viewBox="0 0 44 44" fill="none" xmlns="http://www.w3.org/2000/svg">
<path d="M21.9993 40.3332V25.6665M21.9993 25.6665V18.3332M21.9993 25.6665L29.3327 21.9998M31.166 12.8332C31.166 10.402 30.2002 8.07044 28.4812 6.35136C26.7621 4.63227 24.4305 3.6665 21.9993 3.6665C19.5682 3.6665 17.2366 4.63227 15.5175 6.35136C13.7985 8.07044 12.8327 10.402 12.8327 12.8332M16.4993 12.8332H13.7493C11.0751 12.8332 8.51035 13.8955 6.61936 15.7865C4.72836 17.6775 3.66602 20.2422 3.66602 22.9165C3.66602 25.5908 4.72836 28.1555 6.61936 30.0465C8.51035 31.9375 11.0751 32.9998 13.7493 32.9998H21.9993H30.2493C32.8469 33.0039 35.3459 32.0054 37.2254 30.2124C39.1048 28.4194 40.2199 25.9702 40.3381 23.3753C40.4563 20.7804 39.5685 18.24 37.8598 16.2836C36.151 14.3271 33.7532 13.1056 31.166 12.8735" stroke="url(#paint0_linear_468_6576)" stroke-width="1.89655" stroke-linecap="round" stroke-linejoin="round"/>
<defs>
<linearGradient id="paint0_linear_468_6576" x1="2.71455" y1="5.80561" x2="115.497" y2="11.309" gradientUnits="userSpaceOnUse">
<stop stop-color="#B89B58"/>
<stop offset="1" stop-color="#524527"/>
</linearGradient>
</defs>
</svg>
