<svg width="44" height="44" viewBox="0 0 44 44" fill="none" xmlns="http://www.w3.org/2000/svg">
<path d="M30.4716 34.138H14.2877M30.4716 34.138L34.5176 40.207M30.4716 34.138C32.0812 34.138 33.6249 33.4986 34.763 32.3605C35.9012 31.2223 36.5406 29.6787 36.5406 28.0691V19.9771M14.2877 34.138L10.2417 40.207M14.2877 34.138C12.6781 34.138 11.1345 33.4986 9.99631 32.3605C8.85816 31.2223 8.21875 29.6787 8.21875 28.0691V19.9771M36.5406 19.9771H22.3797M36.5406 19.9771V9.86218M8.21875 19.9771H22.3797M8.21875 19.9771V9.86218M14.2877 26.0461V28.0691M30.4716 26.0461V28.0691M22.3797 19.9771V9.86218M8.21875 9.86218H22.3797M8.21875 9.86218C8.21875 8.25259 8.85816 6.70892 9.99631 5.57077C11.1345 4.43262 12.6781 3.79321 14.2877 3.79321H30.4716C32.0812 3.79321 33.6249 4.43262 34.763 5.57077C35.9012 6.70892 36.5406 8.25259 36.5406 9.86218M22.3797 9.86218H36.5406" stroke="url(#paint0_linear_468_6564)" stroke-width="1.89655" stroke-linecap="round" stroke-linejoin="round"/>
<defs>
<linearGradient id="paint0_linear_468_6564" x1="7.48415" y1="5.91756" x2="94.6433" y2="9.2241" gradientUnits="userSpaceOnUse">
<stop stop-color="#B89B58"/>
<stop offset="1" stop-color="#524527"/>
</linearGradient>
</defs>
</svg>
