<svg width="44" height="44" viewBox="0 0 44 44" fill="none" xmlns="http://www.w3.org/2000/svg">
<path d="M19.4462 6.72636V15.8523C19.4466 16.0517 19.3961 16.2479 19.2997 16.4224C19.2032 16.5969 19.0638 16.7439 18.8947 16.8496L4.35417 25.9365C4.18565 26.0418 4.04664 26.1882 3.95019 26.362C3.85374 26.5357 3.803 26.7311 3.80273 26.9298V28.6897C3.80272 28.8681 3.84339 29.0442 3.92164 29.2045C3.99989 29.3648 4.11366 29.5051 4.25431 29.6148C4.39495 29.7246 4.55877 29.8008 4.73329 29.8377C4.90782 29.8746 5.08846 29.8712 5.26148 29.8278L17.9874 26.6444C18.1604 26.601 18.3411 26.5976 18.5156 26.6345C18.6901 26.6714 18.8539 26.7476 18.9946 26.8573C19.1352 26.967 19.249 27.1074 19.3273 27.2677C19.4055 27.428 19.4462 27.604 19.4462 27.7824V33.5705C19.446 33.7376 19.4101 33.9026 19.341 34.0547C19.2719 34.2068 19.1711 34.3424 19.0453 34.4524L14.8216 38.1481C13.926 38.9342 14.6319 40.3988 15.8032 40.1857L22.1701 39.03C22.3084 39.005 22.4502 39.005 22.5885 39.03L28.9554 40.1857C30.1267 40.4008 30.8326 38.9342 29.937 38.1501L25.7133 34.4543C25.5873 34.3441 25.4864 34.2083 25.4172 34.0558C25.3481 33.9034 25.3124 33.7379 25.3125 33.5705V27.7824C25.3125 27.6042 25.3532 27.4284 25.4313 27.2683C25.5094 27.1082 25.623 26.968 25.7634 26.8583C25.9038 26.7486 26.0674 26.6723 26.2417 26.6352C26.4159 26.5982 26.5964 26.6013 26.7692 26.6444L39.4991 29.8278C39.672 29.8709 39.8524 29.874 40.0267 29.8369C40.201 29.7998 40.3645 29.7236 40.5049 29.6139C40.6453 29.5042 40.7589 29.364 40.837 29.2039C40.9152 29.0437 40.9558 28.8679 40.9559 28.6897V26.9298C40.9556 26.7311 40.9049 26.5357 40.8084 26.362C40.712 26.1882 40.573 26.0418 40.4045 25.9365L25.8639 16.8477C25.6951 16.7422 25.5559 16.5954 25.4594 16.4213C25.363 16.2472 25.3124 16.0514 25.3125 15.8523V6.72636C25.3125 5.94844 25.0034 5.20238 24.4534 4.65231C23.9033 4.10224 23.1572 3.79321 22.3793 3.79321C21.6014 3.79321 20.8553 4.10224 20.3053 4.65231C19.7552 5.20238 19.4462 5.94844 19.4462 6.72636Z" stroke="url(#paint0_linear_468_6570)" stroke-width="1.89655" stroke-linecap="round" stroke-linejoin="round"/>
<defs>
<linearGradient id="paint0_linear_468_6570" x1="2.83907" y1="5.91756" x2="117.058" y2="11.6018" gradientUnits="userSpaceOnUse">
<stop stop-color="#B89B58"/>
<stop offset="1" stop-color="#524527"/>
</linearGradient>
</defs>
</svg>
